<?xml version="1.0" encoding="UTF-8" standalone="no"?>
<svg
   xmlns:dc="http://purl.org/dc/elements/1.1/"
   xmlns:cc="http://creativecommons.org/ns#"
   xmlns:rdf="http://www.w3.org/1999/02/22-rdf-syntax-ns#"
   xmlns:svg="http://www.w3.org/2000/svg"
   xmlns="http://www.w3.org/2000/svg"
   xmlns:sodipodi="http://sodipodi.sourceforge.net/DTD/sodipodi-0.dtd"
   xmlns:inkscape="http://www.inkscape.org/namespaces/inkscape"
   id="Layer_1"
   enable-background="new 0 0 512 512"
   height="512"
   viewBox="0 0 512 512"
   width="512"
   version="1.1"
   sodipodi:docname="calibrate2.svg"
   inkscape:version="0.92.5 (2060ec1f9f, 2020-04-08)">
  <metadata
     id="metadata2262">
    <rdf:RDF>
      <cc:Work
         rdf:about="">
        <dc:format>image/svg+xml</dc:format>
        <dc:type
           rdf:resource="http://purl.org/dc/dcmitype/StillImage" />
        <dc:title></dc:title>
      </cc:Work>
    </rdf:RDF>
  </metadata>
  <defs
     id="defs2260" />
  <sodipodi:namedview
     pagecolor="#ffffff"
     bordercolor="#666666"
     borderopacity="1"
     objecttolerance="10"
     gridtolerance="10"
     guidetolerance="10"
     inkscape:pageopacity="0"
     inkscape:pageshadow="2"
     inkscape:window-width="2400"
     inkscape:window-height="1472"
     id="namedview2258"
     showgrid="false"
     inkscape:zoom="1.3037281"
     inkscape:cx="173.01695"
     inkscape:cy="104.13559"
     inkscape:window-x="0"
     inkscape:window-y="0"
     inkscape:window-maximized="1"
     inkscape:current-layer="Layer_1" />
  <path
     style="image-rendering:auto;fill:#1c1c1c;fill-opacity:1"
     d="M 120 0 C 53.832 0 0 53.832 0 120 L 0 392 C 0 458.168 53.832 512 120 512 L 392 512 C 458.168 512 512 458.168 512 392 L 512 120 C 512 53.832 458.168 0 392 0 L 120 0 z M 120 40 L 392 40 C 436.112 40 472 75.888 472 120 L 472 392 C 472 436.112 436.112 472 392 472 L 120 472 C 75.888 472 40 436.112 40 392 L 40 120 C 40 75.888 75.888 40 120 40 z "
     id="path2276" />
  <path
     style="fill:#1c1c1c;fill-opacity:1;stroke:#000000;stroke-width:1px;stroke-linecap:butt;stroke-linejoin:miter;stroke-opacity:1"
     d="M 73.672524,420.78098 408.53199,62.540181 432.41956,81.794317 99.06647,440.85523 Z"
     id="path1447"
     inkscape:connector-curvature="0" />
  <circle
     style="fill:#1c1c1c;fill-opacity:1;stroke:#000000;stroke-width:25.45593834;stroke-miterlimit:4;stroke-dasharray:none;stroke-opacity:1"
     id="path1445-6"
     cx="191.75777"
     cy="321.00925"
     r="19.803463" />
  <circle
     style="fill:#1c1c1c;fill-opacity:1;stroke:#000000;stroke-width:25.45593834;stroke-miterlimit:4;stroke-dasharray:none;stroke-opacity:1"
     id="path1445-6-7"
     cx="312.94867"
     cy="183.71071"
     r="19.803463" />
  <circle
     style="fill:#1c1c1c;fill-opacity:1;stroke:#000000;stroke-width:25.45593834;stroke-miterlimit:4;stroke-dasharray:none;stroke-opacity:1"
     id="path1445-6-5"
     cx="408.82758"
     cy="86.297737"
     r="19.803463" />
  <circle
     style="fill:#1c1c1c;fill-opacity:1;stroke:#000000;stroke-width:25.45593834;stroke-miterlimit:4;stroke-dasharray:none;stroke-opacity:1"
     id="path1445-6-3"
     cx="98.179977"
     cy="416.12112"
     r="19.803463" />
</svg>
