<?xml version="1.0" encoding="UTF-8" standalone="no"?>
<svg
   xmlns:dc="http://purl.org/dc/elements/1.1/"
   xmlns:cc="http://creativecommons.org/ns#"
   xmlns:rdf="http://www.w3.org/1999/02/22-rdf-syntax-ns#"
   xmlns:svg="http://www.w3.org/2000/svg"
   xmlns="http://www.w3.org/2000/svg"
   id="svg6"
   version="1.1"
   width="24"
   viewBox="0 0 24 24"
   height="24">
  <metadata
     id="metadata12">
    <rdf:RDF>
      <cc:Work
         rdf:about="">
        <dc:format>image/svg+xml</dc:format>
        <dc:type
           rdf:resource="http://purl.org/dc/dcmitype/StillImage" />
        <dc:title></dc:title>
      </cc:Work>
    </rdf:RDF>
  </metadata>
  <defs
     id="defs10" />
  <path
     id="path2"
     fill="none"
     d="M0 0h24v24H0V0z" />
  <path
     style="stroke-width:1.27203739"
     id="path4"
     d="M 21.911865,2.6327684 H 18.064881 L 15.844068,-0.03389831 H 8.5627119 L 6.3418983,2.6327684 H 2.4949152 C 1.16,2.6327684 0.06779661,3.8327683 0.06779661,5.299435 v 16 c 0,1.466667 1.09220339,2.666667 2.42711859,2.666667 H 21.911865 c 1.334915,0 2.427118,-1.2 2.427118,-2.666667 v -16 c 0,-1.4666667 -1.092203,-2.6666666 -2.427118,-2.6666666 z m 0,18.6666666 H 2.4949152 v -16 H 7.4098305 L 9.630644,2.6327684 h 5.145492 l 2.220813,2.6666666 h 4.914916 z M 12.203389,6.6327683 c -3.3494229,0 -6.0677957,2.9866667 -6.0677957,6.6666667 0,3.680001 2.7183728,6.666667 6.0677957,6.666667 3.349424,0 6.067797,-2.986666 6.067797,-6.666667 0,-3.68 -2.718373,-6.6666667 -6.067797,-6.6666667 z m 0,10.6666667 c -2.002372,0 -3.6406771,-1.8 -3.6406771,-4 0,-2.2 1.6383051,-4 3.6406771,-4 2.002374,0 3.640679,1.8 3.640679,4 0,2.2 -1.638305,4 -3.640679,4 z" />
</svg>
