<svg height="512pt" viewBox="0 0 512 512" width="512pt" xmlns="http://www.w3.org/2000/svg"><path d="m446.464844 407.355469c-18.902344-44.191407-32.199219-104.921875-45.058594-163.65625-12.527344-57.210938-25.484375-116.371094-43.863281-160.609375-10.507813-25.296875-22.058594-44.164063-35.304688-57.679688-16.527343-16.859375-35.785156-25.410156-57.238281-25.410156-21.347656 0-40.472656 8.464844-56.839844 25.164062-13.121094 13.386719-24.515625 32.074219-34.835937 57.125-18.027344 43.773438-30.054688 99.824219-42.785157 159.171876-12.691406 59.175781-25.816406 120.363281-44.921874 165.003906-15.796876 36.917968-31.738282 53.316406-45.617188 60.402344v-466.867188h-40v512h512v-40c-16.265625 0-40.753906-6.699219-65.535156-64.644531zm-276.8125-157.507813c12.339844-57.535156 24-111.878906 40.660156-152.324218 21.238281-51.558594 41.382812-57.523438 54.6875-57.523438 13.445312 0 33.84375 6.058594 55.605469 58.4375 17.007812 40.9375 29.574219 98.324219 41.726562 153.820312 13.257813 60.546876 26.96875 123.15625 47.355469 170.824219 8.484375 19.839844 17.625 35.984375 27.707031 48.917969h-343.429687c10.390625-13.136719 19.769531-29.570312 28.429687-49.800781 20.625-48.195313 34.164063-111.3125 47.257813-172.351563zm0 0"/></svg>
