<?xml version="1.0" encoding="UTF-8" standalone="no"?>
<!-- Created with Inkscape (http://www.inkscape.org/) -->

<svg
   xmlns:dc="http://purl.org/dc/elements/1.1/"
   xmlns:cc="http://creativecommons.org/ns#"
   xmlns:rdf="http://www.w3.org/1999/02/22-rdf-syntax-ns#"
   xmlns:svg="http://www.w3.org/2000/svg"
   xmlns="http://www.w3.org/2000/svg"
   xmlns:sodipodi="http://sodipodi.sourceforge.net/DTD/sodipodi-0.dtd"
   xmlns:inkscape="http://www.inkscape.org/namespaces/inkscape"
   width="512"
   height="512"
   viewBox="0 0 135.46666 135.46666"
   version="1.1"
   id="svg5230"
   inkscape:version="0.92.5 (2060ec1f9f, 2020-04-08)"
   sodipodi:docname="step3.svg">
  <defs
     id="defs5224" />
  <sodipodi:namedview
     id="base"
     pagecolor="#ffffff"
     bordercolor="#666666"
     borderopacity="1.0"
     inkscape:pageopacity="0.0"
     inkscape:pageshadow="2"
     inkscape:zoom="1.979899"
     inkscape:cx="250.81693"
     inkscape:cy="300.96039"
     inkscape:document-units="mm"
     inkscape:current-layer="layer1"
     showgrid="false"
     inkscape:window-width="2400"
     inkscape:window-height="1472"
     inkscape:window-x="0"
     inkscape:window-y="0"
     inkscape:window-maximized="1"
     units="px" />
  <metadata
     id="metadata5227">
    <rdf:RDF>
      <cc:Work
         rdf:about="">
        <dc:format>image/svg+xml</dc:format>
        <dc:type
           rdf:resource="http://purl.org/dc/dcmitype/StillImage" />
        <dc:title></dc:title>
      </cc:Work>
    </rdf:RDF>
  </metadata>
  <g
     inkscape:label="Layer 1"
     inkscape:groupmode="layer"
     id="layer1"
     transform="translate(0,-161.53336)">
    <path
       style="fill:#1c1c1c;fill-opacity:1;stroke:#000000;stroke-width:0;stroke-miterlimit:4;stroke-dasharray:none;stroke-opacity:1"
       d="M 0.75587836,162.06268 V 297.37771 H 135.31548 V 286.89397 H 11.181402 V 162.06268 Z"
       id="rect5786"
       inkscape:connector-curvature="0" />
    <path
       style="fill:none;stroke:#000000;stroke-width:0.26458332px;stroke-linecap:butt;stroke-linejoin:miter;stroke-opacity:1"
       d="m 16.437076,273.21304 h 18.976135 v -47.84125 h 21.381564 v -43.8322 h 23.386081 v 30.33509 h 19.109772 v 48.77669 h 19.911582 v 5.74629 H 91.940718 V 219.35823 H 75.370006 V 187.95406 H 62.407434 v 44.23311 H 42.495853 v 46.10399 H 16.437076 v -4.54358 z"
       id="path5913"
       inkscape:connector-curvature="0" />
    <path
       style="fill:#1c1c1c;fill-opacity:1;stroke:#000000;stroke-width:0;stroke-miterlimit:4;stroke-dasharray:none;stroke-opacity:1"
       d="m 62.625508,431.80845 v -8.83884 h 35.860415 35.860417 v -90.40865 -90.40865 h 40.4061 40.4061 V 159.3198 76.487291 h 43.6891 43.6891 v 57.326159 57.32615 h 36.11295 36.11295 v 92.17642 92.17642 h 37.62819 37.62818 v 10.10153 10.10153 H 399.00631 347.9936 V 306.80207 217.90865 H 316.67887 285.36414 V 158.56218 99.215723 h -25.00127 -25.00128 v 83.590127 83.59012 h -37.62818 -37.62818 v 87.12566 87.12565 H 111.36537 62.625508 Z"
       id="path5915"
       inkscape:connector-curvature="0"
       transform="matrix(0.26458333,0,0,0.26458333,0,161.53336)" />
  </g>
</svg>
