<?xml version="1.0" encoding="UTF-8" standalone="no"?>
<!-- Created with Inkscape (http://www.inkscape.org/) -->

<svg
   xmlns:dc="http://purl.org/dc/elements/1.1/"
   xmlns:cc="http://creativecommons.org/ns#"
   xmlns:rdf="http://www.w3.org/1999/02/22-rdf-syntax-ns#"
   xmlns:svg="http://www.w3.org/2000/svg"
   xmlns="http://www.w3.org/2000/svg"
   xmlns:sodipodi="http://sodipodi.sourceforge.net/DTD/sodipodi-0.dtd"
   xmlns:inkscape="http://www.inkscape.org/namespaces/inkscape"
   width="512"
   height="512"
   viewBox="0 0 135.46666 135.46666"
   version="1.1"
   id="svg5230"
   inkscape:version="0.92.5 (2060ec1f9f, 2020-04-08)"
   sodipodi:docname="step4.svg">
  <defs
     id="defs5224" />
  <sodipodi:namedview
     id="base"
     pagecolor="#ffffff"
     bordercolor="#666666"
     borderopacity="1.0"
     inkscape:pageopacity="0.0"
     inkscape:pageshadow="2"
     inkscape:zoom="1.979899"
     inkscape:cx="250.81693"
     inkscape:cy="300.96039"
     inkscape:document-units="mm"
     inkscape:current-layer="layer1"
     showgrid="false"
     inkscape:window-width="2400"
     inkscape:window-height="1472"
     inkscape:window-x="0"
     inkscape:window-y="0"
     inkscape:window-maximized="1"
     units="px" />
  <metadata
     id="metadata5227">
    <rdf:RDF>
      <cc:Work
         rdf:about="">
        <dc:format>image/svg+xml</dc:format>
        <dc:type
           rdf:resource="http://purl.org/dc/dcmitype/StillImage" />
        <dc:title></dc:title>
      </cc:Work>
    </rdf:RDF>
  </metadata>
  <g
     inkscape:label="Layer 1"
     inkscape:groupmode="layer"
     id="layer1"
     transform="translate(0,-161.53336)">
    <path
       style="fill:#1c1c1c;fill-opacity:1;stroke:#000000;stroke-width:0;stroke-miterlimit:4;stroke-dasharray:none;stroke-opacity:1"
       d="M 0.50585938 390.27734 L 0.50585938 512.50586 L 14.142578 512.50586 L 14.142578 404.41797 L 151.01758 404.41797 L 151.01758 390.27734 L 0.50585938 390.27734 z "
       transform="matrix(0.26458333,0,0,0.26458333,0,161.53336)"
       id="rect5942" />
    <path
       style="fill:#1c1c1c;fill-opacity:1;stroke:#000000;stroke-width:0;stroke-miterlimit:4;stroke-dasharray:none;stroke-opacity:1"
       d="M 134.34961 268.04883 L 134.34961 390.27734 L 151.01758 390.27734 L 151.01758 282.18945 L 287.89258 282.18945 L 287.89258 268.04883 L 134.34961 268.04883 z "
       transform="matrix(0.26458333,0,0,0.26458333,0,161.53336)"
       id="rect5942-6" />
    <path
       style="fill:#1c1c1c;fill-opacity:1;stroke:#000000;stroke-width:0;stroke-miterlimit:4;stroke-dasharray:none;stroke-opacity:1"
       d="M 268.19531 145.82031 L 268.19531 268.04883 L 287.89258 268.04883 L 287.89258 159.96094 L 424.76953 159.96094 L 424.76953 145.82031 L 268.19531 145.82031 z "
       transform="matrix(0.26458333,0,0,0.26458333,0,161.53336)"
       id="rect5942-2" />
    <path
       style="fill:#1c1c1c;fill-opacity:1;stroke:#000000;stroke-width:0;stroke-miterlimit:4;stroke-dasharray:none;stroke-opacity:1"
       d="M 402.04102 23.591797 L 402.04102 145.82031 L 424.76953 145.82031 L 424.76953 37.732422 L 513.1582 37.732422 L 513.1582 23.591797 L 402.04102 23.591797 z "
       transform="matrix(0.26458333,0,0,0.26458333,0,161.53336)"
       id="rect5942-9" />
  </g>
</svg>
