<?xml version="1.0" encoding="UTF-8" standalone="no"?>
<svg
   xmlns:dc="http://purl.org/dc/elements/1.1/"
   xmlns:cc="http://creativecommons.org/ns#"
   xmlns:rdf="http://www.w3.org/1999/02/22-rdf-syntax-ns#"
   xmlns:svg="http://www.w3.org/2000/svg"
   xmlns="http://www.w3.org/2000/svg"
   id="svg4"
   version="1.1"
   viewBox="0 0 24 24">
  <metadata
     id="metadata10">
    <rdf:RDF>
      <cc:Work
         rdf:about="">
        <dc:format>image/svg+xml</dc:format>
        <dc:type
           rdf:resource="http://purl.org/dc/dcmitype/StillImage" />
        <dc:title></dc:title>
      </cc:Work>
    </rdf:RDF>
  </metadata>
  <defs
     id="defs8" />
  <path
     style="stroke-width:1.33026552"
     id="path2"
     d="m 13.154662,11.152813 a 1.4830507,1.1932204 0 0 0 -0.489408,-0.250576 1.4830507,1.1932204 0 0 0 -1.127117,0 1.4830507,1.1932204 0 0 0 -0.489409,0.250576 l -2.966101,2.386441 a 1.4891193,1.1981028 0 0 0 2.105932,1.694373 l 0.430086,-0.357966 v 3.090441 a 1.483051,1.1932205 0 0 0 2.966101,0 v -3.090441 l 0.430085,0.357966 a 1.4830507,1.1932204 0 0 0 2.105932,0 1.4830507,1.1932204 0 0 0 0,-1.694373 z M 23.966102,8.3487458 A 1.9427966,1.5631186 0 0 0 23.877119,8.0265762 V 7.9191864 A 1.5868644,1.2767458 0 0 0 23.595338,7.5850848 v 0 L 14.697035,0.42576271 v 0 A 1.5868644,1.2767458 0 0 0 14.281781,0.19905085 H 14.133474 A 1.6313561,1.3125424 0 0 0 13.673728,0.06779661 H 4.6864407 A 4.4491526,3.579661 0 0 0 0.23728809,3.6474576 V 20.352542 A 4.4491526,3.579661 0 0 0 4.6864407,23.932203 H 19.51695 a 4.4491526,3.579661 0 0 0 4.449152,-3.579661 V 8.420339 c 0,0 0,0 0,-0.071593 z M 15.067796,4.136678 18.908899,7.2271186 h -2.35805 A 1.4830507,1.1932204 0 0 1 15.067796,6.0338984 Z M 21,20.352542 a 1.4830507,1.1932204 0 0 1 -1.48305,1.193221 H 4.6864407 A 1.4830507,1.1932204 0 0 1 3.2033898,20.352542 V 3.6474576 A 1.4830507,1.1932204 0 0 1 4.6864407,2.4542372 h 7.4152533 v 3.5796612 a 4.4491526,3.579661 0 0 0 4.449155,3.579661 H 21 Z" />
</svg>
